<?xml version="1.0" encoding="UTF-8" standalone="no"?>
<!-- Created with Inkscape (http://www.inkscape.org/) -->
<svg
   xmlns:svg="http://www.w3.org/2000/svg"
   xmlns="http://www.w3.org/2000/svg"
   version="1.0"
   width="735.72565"
   height="500.54077"
   id="svg13982">
  <defs
     id="defs13984" />
  <g
     transform="translate(-9.6549042,-317.18152)"
     id="layer1">
    <g
       id="g14601">
      <path
         d="M 180.47458,422.7997 C 172.08041,413.70602 155.29208,406.01137 134.30666,410.20845 C 85.34069,418.60262 8.3941654,454.97734 16.788333,563.40199 C 16.788333,579.72398 48.266457,623.32701 75.547498,641.74754 L 112.62173,587.88497 L 67.852846,550.81074 C 59.925022,545.4478 58.292823,534.48875 61.557221,531.92386 L 104.22757,469.66712 C 107.72513,458.00856 121.71541,453.34514 128.71055,458.4749 L 173.47944,474.56372 L 188.86875,428.39581 L 180.47458,422.7997 z"
         id="path14042"
         style="fill:#fbf5f5;fill-opacity:1;fill-rule:evenodd;stroke:#101010;stroke-width:13;stroke-linecap:round;stroke-linejoin:round;stroke-miterlimit:4;stroke-dasharray:none;stroke-opacity:1" />
      <path
         d="M 181.87361,405.31185 L 28.680069,658.53587 C 51.297684,764.39564 162.05405,775.82103 222.44541,759.96538 L 400.12193,443.0856 L 203.55854,359.84345 L 181.87361,405.31185 z"
         id="path14044"
         style="fill:#fbf5f5;fill-opacity:1;fill-rule:evenodd;stroke:#101010;stroke-width:13;stroke-linecap:round;stroke-linejoin:round;stroke-miterlimit:4;stroke-dasharray:none;stroke-opacity:1" />
      <path
         d="M 216.14979,426.29727 L 63.655761,673.92517 C 108.19148,721.72528 168.81602,738.74679 232.23861,729.88628 L 372.84089,479.46032 C 323.40858,473.39787 260.68551,449.14805 216.14979,426.29727 z"
         id="path14567"
         style="fill:#ede588;fill-opacity:1;fill-rule:evenodd;stroke:none;stroke-width:1px;stroke-linecap:butt;stroke-linejoin:miter;stroke-opacity:1" />
      <path
         d="M 212.65222,328.36532 C 155.77075,355.24394 179.07555,394.81914 179.07555,394.81914 L 201.45999,408.10991 L 188.16923,452.17928 C 179.07555,491.8184 208.45514,478.99398 219.64736,466.16956 L 244.82985,419.30213 L 258.12061,423.49922 L 253.22402,450.08074 C 250.42596,466.16956 265.81527,459.87393 271.41138,452.17928 L 290.29826,422.10018 L 388.2302,450.08074 C 388.2302,450.08074 418.68698,474.84157 421.80687,434.69143 C 424.92676,394.54129 268.69085,301.88498 212.65222,328.36532 z"
         id="path14046"
         style="fill:#fbf5f5;fill-opacity:1;fill-rule:evenodd;stroke:#101010;stroke-width:13;stroke-linecap:round;stroke-linejoin:round;stroke-miterlimit:4;stroke-dasharray:none;stroke-opacity:1" />
      <path
         d="M 630.96152,516.53455 C 650.5479,504.64282 714.20367,528.42629 714.20367,528.42629 C 753.60962,568.29858 742.65056,654.33879 703.71096,709.60038 C 684.35774,723.59066 632.12738,734.08337 616.27173,713.09796 L 615.57221,671.82663 L 665.93721,671.12712 C 680.627,671.12712 684.82409,658.53587 686.92263,658.53587 L 689.72068,573.19518 C 690.18702,569.46444 687.85531,561.53662 678.52846,564.1015 L 621.86784,559.2049 L 630.96152,516.53455 z"
         id="path14052"
         style="fill:#fbf5f5;fill-opacity:1;fill-rule:evenodd;stroke:#101010;stroke-width:13;stroke-linecap:round;stroke-linejoin:round;stroke-miterlimit:4;stroke-dasharray:none;stroke-opacity:1" />
      <path
         d="M 417.60978,445.18414 L 381.93458,767.66004 C 439.76106,833.41434 564.74087,812.42892 628.86297,784.44837 L 644.95179,466.16956 L 417.60978,445.18414 z"
         id="path14054"
         style="fill:#fbf5f5;fill-opacity:1;fill-rule:evenodd;stroke:#101010;stroke-width:13;stroke-linecap:round;stroke-linejoin:round;stroke-miterlimit:4;stroke-dasharray:none;stroke-opacity:1" />
      <path
         d="M 418.30929,494.84963 C 464.01086,518.6331 553.0823,524.22921 607.87755,524.22921 L 593.88727,766.26101 C 533.26274,784.68154 442.5591,780.01812 391.02825,745.97511 L 418.30929,494.84963 z"
         id="path14569"
         style="fill:#ede588;fill-opacity:1;fill-rule:evenodd;stroke:none;stroke-width:1px;stroke-linecap:butt;stroke-linejoin:miter;stroke-opacity:1" />
      <path
         d="M 413.41269,471.06616 C 547.83254,496.64437 492.45777,482.72472 545.62083,492.05157 C 545.62083,492.05157 549.65856,520.11038 555.08756,532.30357 C 560.51655,544.49675 567.35235,539.67842 575.69993,541.01755 C 584.0475,542.35668 608.57707,494.15011 608.57707,494.15011 C 608.57707,494.15011 661.06733,498.46642 671.53332,485.75595 C 681.99931,473.04548 684.92773,460.75144 668.73526,439.58803 C 652.54279,418.42462 584.07731,399.36569 544.22179,397.6172 C 491.46137,399.17944 436.68686,399.97119 393.82631,434.69143 C 386.52772,444.84295 386.53436,453.27361 388.92971,457.07588 C 391.32506,460.87815 413.41269,471.06616 413.41269,471.06616 z"
         id="path14056"
         style="fill:#fbf5f5;fill-opacity:1;fill-rule:evenodd;stroke:#101010;stroke-width:13;stroke-linecap:round;stroke-linejoin:round;stroke-miterlimit:4;stroke-dasharray:none;stroke-opacity:1" />
      <path
         d="M 218.94785,580.19031 A 26.581528,27.28104 0 1 1 165.78479,580.19031 A 26.581528,27.28104 0 1 1 218.94785,580.19031 z"
         transform="matrix(0.5131579,0,0,0.4358974,66.720737,381.14941)"
         id="path14573"
         style="opacity:1;fill:#fbf5f5;fill-opacity:1;fill-rule:evenodd;stroke:none;stroke-width:13;stroke-linecap:round;stroke-linejoin:round;stroke-miterlimit:4;stroke-dasharray:none;stroke-opacity:1" />
      <path
         d="M 218.94785,580.19031 A 26.581528,27.28104 0 1 1 165.78479,580.19031 A 26.581528,27.28104 0 1 1 218.94785,580.19031 z"
         transform="matrix(0.5131579,0,0,0.4358974,95.750558,327.98639)"
         id="path14575"
         style="opacity:1;fill:#fbf5f5;fill-opacity:1;fill-rule:evenodd;stroke:none;stroke-width:13;stroke-linecap:round;stroke-linejoin:round;stroke-miterlimit:4;stroke-dasharray:none;stroke-opacity:1" />
      <path
         d="M 218.94785,580.19031 A 26.581528,27.28104 0 1 1 165.78479,580.19031 A 26.581528,27.28104 0 1 1 218.94785,580.19031 z"
         transform="matrix(0.5131579,0,0,0.4358974,123.0316,423.81979)"
         id="path14577"
         style="opacity:1;fill:#fbf5f5;fill-opacity:1;fill-rule:evenodd;stroke:none;stroke-width:13;stroke-linecap:round;stroke-linejoin:round;stroke-miterlimit:4;stroke-dasharray:none;stroke-opacity:1" />
      <path
         d="M 218.94785,580.19031 A 26.581528,27.28104 0 1 1 165.78479,580.19031 A 26.581528,27.28104 0 1 1 218.94785,580.19031 z"
         transform="matrix(0.5131579,0,0,0.4358974,226.55965,261.53256)"
         id="path14579"
         style="opacity:1;fill:#fbf5f5;fill-opacity:1;fill-rule:evenodd;stroke:none;stroke-width:13;stroke-linecap:round;stroke-linejoin:round;stroke-miterlimit:4;stroke-dasharray:none;stroke-opacity:1" />
      <path
         d="M 218.94785,580.19031 A 26.581528,27.28104 0 1 1 165.78479,580.19031 A 26.581528,27.28104 0 1 1 218.94785,580.19031 z"
         transform="matrix(0.5131579,0,0,0.4358974,166.40146,312.59708)"
         id="path14581"
         style="opacity:1;fill:#fbf5f5;fill-opacity:1;fill-rule:evenodd;stroke:none;stroke-width:13;stroke-linecap:round;stroke-linejoin:round;stroke-miterlimit:4;stroke-dasharray:none;stroke-opacity:1" />
      <path
         d="M 218.94785,580.19031 A 26.581528,27.28104 0 1 1 165.78479,580.19031 A 26.581528,27.28104 0 1 1 218.94785,580.19031 z"
         transform="matrix(0.5131579,0,0,0.4358974,97.849105,258.73451)"
         id="path14583"
         style="opacity:1;fill:#fbf5f5;fill-opacity:1;fill-rule:evenodd;stroke:none;stroke-width:13;stroke-linecap:round;stroke-linejoin:round;stroke-miterlimit:4;stroke-dasharray:none;stroke-opacity:1" />
      <path
         d="M 218.94785,580.19031 A 26.581528,27.28104 0 1 1 165.78479,580.19031 A 26.581528,27.28104 0 1 1 218.94785,580.19031 z"
         transform="matrix(0.5131579,0,0,0.4358974,9.0108405,412.62756)"
         id="path14585"
         style="opacity:1;fill:#fbf5f5;fill-opacity:1;fill-rule:evenodd;stroke:none;stroke-width:13;stroke-linecap:round;stroke-linejoin:round;stroke-miterlimit:4;stroke-dasharray:none;stroke-opacity:1" />
      <path
         d="M 218.94785,580.19031 A 26.581528,27.28104 0 1 1 165.78479,580.19031 A 26.581528,27.28104 0 1 1 218.94785,580.19031 z"
         transform="matrix(0.5131579,0,0,0.4358974,357.36875,288.81361)"
         id="path14587"
         style="opacity:1;fill:#fbf5f5;fill-opacity:1;fill-rule:evenodd;stroke:none;stroke-width:13;stroke-linecap:round;stroke-linejoin:round;stroke-miterlimit:4;stroke-dasharray:none;stroke-opacity:1" />
      <path
         d="M 218.94785,580.19031 A 26.581528,27.28104 0 1 1 165.78479,580.19031 A 26.581528,27.28104 0 1 1 218.94785,580.19031 z"
         transform="matrix(0.5131579,0,0,0.4358974,325.19111,383.9475)"
         id="path14589"
         style="opacity:1;fill:#fbf5f5;fill-opacity:1;fill-rule:evenodd;stroke:none;stroke-width:13;stroke-linecap:round;stroke-linejoin:round;stroke-miterlimit:4;stroke-dasharray:none;stroke-opacity:1" />
      <path
         d="M 218.94785,580.19031 A 26.581528,27.28104 0 1 1 165.78479,580.19031 A 26.581528,27.28104 0 1 1 218.94785,580.19031 z"
         transform="matrix(0.5131579,0,0,0.4358974,428.01965,359.46451)"
         id="path14591"
         style="opacity:1;fill:#fbf5f5;fill-opacity:1;fill-rule:evenodd;stroke:none;stroke-width:13;stroke-linecap:round;stroke-linejoin:round;stroke-miterlimit:4;stroke-dasharray:none;stroke-opacity:1" />
      <path
         d="M 218.94785,580.19031 A 26.581528,27.28104 0 1 1 165.78479,580.19031 A 26.581528,27.28104 0 1 1 218.94785,580.19031 z"
         transform="matrix(0.5131579,0,0,0.4358974,379.75319,462.99256)"
         id="path14593"
         style="opacity:1;fill:#fbf5f5;fill-opacity:1;fill-rule:evenodd;stroke:none;stroke-width:13;stroke-linecap:round;stroke-linejoin:round;stroke-miterlimit:4;stroke-dasharray:none;stroke-opacity:1" />
      <path
         d="M 218.94785,580.19031 A 26.581528,27.28104 0 1 1 165.78479,580.19031 A 26.581528,27.28104 0 1 1 218.94785,580.19031 z"
         transform="matrix(0.5131579,0,0,0.4358974,323.09257,465.79062)"
         id="path14595"
         style="opacity:1;fill:#fbf5f5;fill-opacity:1;fill-rule:evenodd;stroke:none;stroke-width:13;stroke-linecap:round;stroke-linejoin:round;stroke-miterlimit:4;stroke-dasharray:none;stroke-opacity:1" />
      <path
         d="M 218.94785,580.19031 A 26.581528,27.28104 0 1 1 165.78479,580.19031 A 26.581528,27.28104 0 1 1 218.94785,580.19031 z"
         transform="matrix(0.5131579,0,0,0.4358974,467.89194,462.99256)"
         id="path14597"
         style="opacity:1;fill:#fbf5f5;fill-opacity:1;fill-rule:evenodd;stroke:none;stroke-width:13;stroke-linecap:round;stroke-linejoin:round;stroke-miterlimit:4;stroke-dasharray:none;stroke-opacity:1" />
      <path
         d="M 218.94785,580.19031 A 26.581528,27.28104 0 1 1 165.78479,580.19031 A 26.581528,27.28104 0 1 1 218.94785,580.19031 z"
         transform="matrix(0.5131579,0,0,0.4358974,476.98562,332.18347)"
         id="path14599"
         style="opacity:1;fill:#fbf5f5;fill-opacity:1;fill-rule:evenodd;stroke:none;stroke-width:13;stroke-linecap:round;stroke-linejoin:round;stroke-miterlimit:4;stroke-dasharray:none;stroke-opacity:1" />
    </g>
  </g>
</svg>
